<svg xmlns="http://www.w3.org/2000/svg" xmlns:xlink="http://www.w3.org/1999/xlink" width="150" zoomAndPan="magnify" viewBox="0 0 112.5 112.499997" height="150" preserveAspectRatio="xMidYMid meet" version="1.0"><defs><g/><clipPath id="333376514e"><path d="M 3.007812 3 L 109 3 L 109 108.96875 L 3.007812 108.96875 Z M 3.007812 3 " clip-rule="nonzero"/></clipPath></defs><g clip-path="url(#333376514e)"><path fill="#d2d4b5" d="M 24.15625 89.898438 L 25.355469 91.085938 L 25.476562 91.207031 C 29.210938 95.074219 29.171875 101.300781 25.355469 105.113281 C 21.542969 108.929688 15.316406 108.96875 11.449219 105.234375 L 11.328125 105.113281 L 10.128906 103.925781 L 6.863281 100.648438 C 3.007812 96.792969 3.007812 90.488281 6.863281 86.621094 C 10.714844 82.765625 17.035156 82.765625 20.890625 86.621094 Z M 90.320312 35.628906 L 91.480469 34.46875 L 92.816406 33.136719 L 105.042969 20.90625 C 108.898438 17.054688 108.898438 10.746094 105.042969 6.878906 C 101.175781 3.027344 94.871094 3.027344 91.015625 6.878906 L 69.28125 28.613281 C 65.425781 32.46875 65.425781 38.777344 69.28125 42.640625 L 76.292969 49.65625 L 77.546875 50.894531 L 91.109375 64.457031 C 94.960938 68.3125 101.269531 68.3125 105.136719 64.457031 C 108.992188 60.605469 108.992188 54.285156 105.136719 50.429688 L 91.574219 36.867188 Z M 7.421875 6.972656 L 7.421875 6.960938 C 11.277344 3.105469 17.597656 3.105469 21.449219 6.960938 L 104.949219 90.472656 C 108.816406 94.328125 108.816406 100.648438 104.949219 104.5 C 101.097656 108.355469 94.789062 108.355469 90.921875 104.5 L 7.421875 20.988281 C 3.566406 17.132812 3.566406 10.828125 7.421875 6.972656 Z M 7.300781 46.949219 C 11.15625 43.097656 17.460938 43.097656 21.328125 46.949219 L 30.835938 56.457031 L 51.414062 77.03125 L 64.972656 90.59375 C 68.828125 94.445312 68.828125 100.765625 64.972656 104.621094 C 61.105469 108.472656 54.800781 108.472656 50.945312 104.621094 L 7.300781 60.976562 C 3.449219 57.125 3.449219 50.804688 7.300781 46.949219 Z M 7.300781 46.949219 " fill-opacity="1" fill-rule="evenodd"/></g><g fill="#d2d4b5" fill-opacity="1"><g transform="translate(43.322304, 53.379533)"><g><path d="M 0.53125 -2.5625 C 0.46875 -2.5625 0.414062 -2.582031 0.375 -2.625 C 0.332031 -2.664062 0.3125 -2.71875 0.3125 -2.78125 C 0.3125 -2.84375 0.332031 -2.894531 0.375 -2.9375 C 0.414062 -2.976562 0.46875 -3 0.53125 -3 C 0.601562 -3 0.660156 -2.976562 0.703125 -2.9375 C 0.742188 -2.894531 0.765625 -2.84375 0.765625 -2.78125 C 0.765625 -2.71875 0.742188 -2.664062 0.703125 -2.625 C 0.660156 -2.582031 0.601562 -2.5625 0.53125 -2.5625 Z M 0.109375 0.90625 C 0.0351562 0.90625 -0.0234375 0.898438 -0.078125 0.890625 C -0.128906 0.878906 -0.175781 0.867188 -0.21875 0.859375 L -0.171875 0.609375 L -0.140625 0.59375 C -0.078125 0.625 -0.0078125 0.640625 0.0625 0.640625 C 0.164062 0.640625 0.242188 0.601562 0.296875 0.53125 C 0.347656 0.46875 0.375 0.375 0.375 0.25 L 0.375 -2.140625 L 0.6875 -2.140625 L 0.6875 0.234375 C 0.6875 0.453125 0.632812 0.617188 0.53125 0.734375 C 0.4375 0.847656 0.296875 0.90625 0.109375 0.90625 Z M 0.109375 0.90625 "/></g></g></g><g fill="#d2d4b5" fill-opacity="1"><g transform="translate(44.384903, 53.379533)"><g><path d="M 1.109375 0.046875 C 0.941406 0.046875 0.789062 0.00390625 0.65625 -0.078125 C 0.519531 -0.160156 0.414062 -0.285156 0.34375 -0.453125 C 0.269531 -0.617188 0.234375 -0.828125 0.234375 -1.078125 C 0.234375 -1.316406 0.269531 -1.519531 0.34375 -1.6875 C 0.425781 -1.851562 0.535156 -1.976562 0.671875 -2.0625 C 0.804688 -2.144531 0.96875 -2.1875 1.15625 -2.1875 C 1.289062 -2.1875 1.414062 -2.160156 1.53125 -2.109375 C 1.644531 -2.054688 1.742188 -1.96875 1.828125 -1.84375 L 1.875 -1.84375 L 1.875 -3 L 2.1875 -3 L 2.1875 0 L 1.875 0 L 1.875 -0.3125 L 1.828125 -0.328125 C 1.753906 -0.210938 1.65625 -0.117188 1.53125 -0.046875 C 1.414062 0.015625 1.273438 0.046875 1.109375 0.046875 Z M 1.21875 -0.25 C 1.414062 -0.25 1.570312 -0.316406 1.6875 -0.453125 C 1.8125 -0.585938 1.875 -0.796875 1.875 -1.078125 C 1.875 -1.359375 1.8125 -1.566406 1.6875 -1.703125 C 1.570312 -1.835938 1.414062 -1.90625 1.21875 -1.90625 C 1.007812 -1.90625 0.847656 -1.835938 0.734375 -1.703125 C 0.617188 -1.566406 0.5625 -1.359375 0.5625 -1.078125 C 0.5625 -0.523438 0.78125 -0.25 1.21875 -0.25 Z M 1.21875 -0.25 "/></g></g></g><g fill="#d2d4b5" fill-opacity="1"><g transform="translate(46.943291, 53.379533)"><g><path d="M 0.984375 0.046875 C 0.847656 0.046875 0.722656 0.03125 0.609375 0 C 0.492188 -0.0390625 0.394531 -0.09375 0.3125 -0.15625 C 0.226562 -0.21875 0.171875 -0.289062 0.140625 -0.375 L 0.328125 -0.5625 L 0.375 -0.5625 C 0.445312 -0.457031 0.53125 -0.378906 0.625 -0.328125 C 0.726562 -0.273438 0.847656 -0.25 0.984375 -0.25 C 1.140625 -0.25 1.257812 -0.273438 1.34375 -0.328125 C 1.425781 -0.390625 1.46875 -0.476562 1.46875 -0.59375 C 1.46875 -0.675781 1.441406 -0.742188 1.390625 -0.796875 C 1.335938 -0.859375 1.253906 -0.898438 1.140625 -0.921875 L 0.78125 -1.015625 C 0.59375 -1.054688 0.453125 -1.128906 0.359375 -1.234375 C 0.273438 -1.335938 0.234375 -1.460938 0.234375 -1.609375 C 0.234375 -1.722656 0.257812 -1.820312 0.3125 -1.90625 C 0.375 -2 0.460938 -2.066406 0.578125 -2.109375 C 0.691406 -2.160156 0.820312 -2.1875 0.96875 -2.1875 C 1.164062 -2.1875 1.320312 -2.15625 1.4375 -2.09375 C 1.550781 -2.039062 1.640625 -1.96875 1.703125 -1.875 L 1.53125 -1.703125 L 1.484375 -1.703125 C 1.421875 -1.773438 1.347656 -1.828125 1.265625 -1.859375 C 1.179688 -1.898438 1.082031 -1.921875 0.96875 -1.921875 C 0.832031 -1.921875 0.722656 -1.894531 0.640625 -1.84375 C 0.566406 -1.789062 0.53125 -1.71875 0.53125 -1.625 C 0.53125 -1.539062 0.554688 -1.472656 0.609375 -1.421875 C 0.671875 -1.367188 0.765625 -1.320312 0.890625 -1.28125 L 1.25 -1.203125 C 1.4375 -1.160156 1.570312 -1.085938 1.65625 -0.984375 C 1.738281 -0.878906 1.78125 -0.75 1.78125 -0.59375 C 1.78125 -0.46875 1.75 -0.359375 1.6875 -0.265625 C 1.625 -0.171875 1.53125 -0.09375 1.40625 -0.03125 C 1.289062 0.0195312 1.148438 0.046875 0.984375 0.046875 Z M 0.984375 0.046875 "/></g></g></g><g fill="#d2d4b5" fill-opacity="1"><g transform="translate(48.924727, 53.379533)"><g><path d="M 1.234375 0.046875 C 1.023438 0.046875 0.847656 0.00390625 0.703125 -0.078125 C 0.554688 -0.171875 0.441406 -0.300781 0.359375 -0.46875 C 0.273438 -0.632812 0.234375 -0.835938 0.234375 -1.078125 C 0.234375 -1.304688 0.273438 -1.503906 0.359375 -1.671875 C 0.441406 -1.847656 0.554688 -1.976562 0.703125 -2.0625 C 0.847656 -2.144531 1.023438 -2.1875 1.234375 -2.1875 C 1.429688 -2.1875 1.601562 -2.144531 1.75 -2.0625 C 1.90625 -1.976562 2.023438 -1.847656 2.109375 -1.671875 C 2.191406 -1.503906 2.234375 -1.304688 2.234375 -1.078125 C 2.234375 -0.835938 2.191406 -0.632812 2.109375 -0.46875 C 2.023438 -0.300781 1.90625 -0.171875 1.75 -0.078125 C 1.601562 0.00390625 1.429688 0.046875 1.234375 0.046875 Z M 1.234375 -0.25 C 1.441406 -0.25 1.601562 -0.3125 1.71875 -0.4375 C 1.832031 -0.570312 1.890625 -0.785156 1.890625 -1.078125 C 1.890625 -1.359375 1.832031 -1.566406 1.71875 -1.703125 C 1.601562 -1.835938 1.441406 -1.90625 1.234375 -1.90625 C 1.015625 -1.90625 0.847656 -1.835938 0.734375 -1.703125 C 0.617188 -1.566406 0.5625 -1.359375 0.5625 -1.078125 C 0.5625 -0.785156 0.617188 -0.570312 0.734375 -0.4375 C 0.847656 -0.3125 1.015625 -0.25 1.234375 -0.25 Z M 1.234375 -0.25 "/></g></g></g><g fill="#d2d4b5" fill-opacity="1"><g transform="translate(51.384038, 53.379533)"><g><path d="M 0.890625 0.046875 C 0.671875 0.046875 0.503906 -0.0078125 0.390625 -0.125 C 0.273438 -0.238281 0.21875 -0.394531 0.21875 -0.59375 C 0.21875 -0.71875 0.242188 -0.820312 0.296875 -0.90625 C 0.347656 -1 0.425781 -1.070312 0.53125 -1.125 C 0.644531 -1.1875 0.789062 -1.234375 0.96875 -1.265625 C 1.125 -1.285156 1.238281 -1.3125 1.3125 -1.34375 C 1.394531 -1.375 1.453125 -1.410156 1.484375 -1.453125 C 1.515625 -1.492188 1.53125 -1.546875 1.53125 -1.609375 C 1.53125 -1.703125 1.492188 -1.773438 1.421875 -1.828125 C 1.359375 -1.878906 1.253906 -1.90625 1.109375 -1.90625 C 0.960938 -1.90625 0.835938 -1.878906 0.734375 -1.828125 C 0.640625 -1.773438 0.550781 -1.695312 0.46875 -1.59375 L 0.4375 -1.59375 L 0.28125 -1.8125 C 0.375 -1.925781 0.488281 -2.015625 0.625 -2.078125 C 0.769531 -2.148438 0.929688 -2.1875 1.109375 -2.1875 C 1.359375 -2.1875 1.539062 -2.128906 1.65625 -2.015625 C 1.78125 -1.910156 1.84375 -1.757812 1.84375 -1.5625 L 1.84375 -0.421875 C 1.84375 -0.304688 1.894531 -0.25 2 -0.25 C 2.03125 -0.25 2.0625 -0.253906 2.09375 -0.265625 L 2.125 -0.25 L 2.15625 -0.03125 C 2.132812 -0.0195312 2.101562 -0.0078125 2.0625 0 C 2.019531 0.0078125 1.984375 0.015625 1.953125 0.015625 C 1.828125 0.015625 1.734375 -0.0078125 1.671875 -0.0625 C 1.617188 -0.113281 1.582031 -0.191406 1.5625 -0.296875 L 1.515625 -0.296875 C 1.460938 -0.179688 1.382812 -0.09375 1.28125 -0.03125 C 1.175781 0.0195312 1.046875 0.046875 0.890625 0.046875 Z M 0.953125 -0.21875 C 1.078125 -0.21875 1.179688 -0.242188 1.265625 -0.296875 C 1.347656 -0.347656 1.410156 -0.421875 1.453125 -0.515625 C 1.503906 -0.617188 1.53125 -0.738281 1.53125 -0.875 L 1.53125 -1.140625 L 1.5 -1.15625 C 1.445312 -1.125 1.382812 -1.09375 1.3125 -1.0625 C 1.25 -1.039062 1.15625 -1.019531 1.03125 -1 C 0.90625 -0.988281 0.804688 -0.960938 0.734375 -0.921875 C 0.660156 -0.890625 0.609375 -0.847656 0.578125 -0.796875 C 0.546875 -0.742188 0.53125 -0.675781 0.53125 -0.59375 C 0.53125 -0.46875 0.566406 -0.375 0.640625 -0.3125 C 0.722656 -0.25 0.828125 -0.21875 0.953125 -0.21875 Z M 0.953125 -0.21875 "/></g></g></g><g fill="#d2d4b5" fill-opacity="1"><g transform="translate(53.600532, 53.379533)"><g><path d="M 0.53125 -2.5625 C 0.46875 -2.5625 0.414062 -2.582031 0.375 -2.625 C 0.332031 -2.664062 0.3125 -2.71875 0.3125 -2.78125 C 0.3125 -2.84375 0.332031 -2.894531 0.375 -2.9375 C 0.414062 -2.976562 0.46875 -3 0.53125 -3 C 0.601562 -3 0.660156 -2.976562 0.703125 -2.9375 C 0.742188 -2.894531 0.765625 -2.84375 0.765625 -2.78125 C 0.765625 -2.71875 0.742188 -2.664062 0.703125 -2.625 C 0.660156 -2.582031 0.601562 -2.5625 0.53125 -2.5625 Z M 0.109375 0.90625 C 0.0351562 0.90625 -0.0234375 0.898438 -0.078125 0.890625 C -0.128906 0.878906 -0.175781 0.867188 -0.21875 0.859375 L -0.171875 0.609375 L -0.140625 0.59375 C -0.078125 0.625 -0.0078125 0.640625 0.0625 0.640625 C 0.164062 0.640625 0.242188 0.601562 0.296875 0.53125 C 0.347656 0.46875 0.375 0.375 0.375 0.25 L 0.375 -2.140625 L 0.6875 -2.140625 L 0.6875 0.234375 C 0.6875 0.453125 0.632812 0.617188 0.53125 0.734375 C 0.4375 0.847656 0.296875 0.90625 0.109375 0.90625 Z M 0.109375 0.90625 "/></g></g></g><g fill="#d2d4b5" fill-opacity="1"><g transform="translate(54.663131, 53.379533)"><g><path d="M 1.109375 0.046875 C 0.941406 0.046875 0.789062 0.00390625 0.65625 -0.078125 C 0.519531 -0.160156 0.414062 -0.285156 0.34375 -0.453125 C 0.269531 -0.617188 0.234375 -0.828125 0.234375 -1.078125 C 0.234375 -1.316406 0.269531 -1.519531 0.34375 -1.6875 C 0.425781 -1.851562 0.535156 -1.976562 0.671875 -2.0625 C 0.804688 -2.144531 0.96875 -2.1875 1.15625 -2.1875 C 1.289062 -2.1875 1.414062 -2.160156 1.53125 -2.109375 C 1.644531 -2.054688 1.742188 -1.96875 1.828125 -1.84375 L 1.875 -1.84375 L 1.875 -3 L 2.1875 -3 L 2.1875 0 L 1.875 0 L 1.875 -0.3125 L 1.828125 -0.328125 C 1.753906 -0.210938 1.65625 -0.117188 1.53125 -0.046875 C 1.414062 0.015625 1.273438 0.046875 1.109375 0.046875 Z M 1.21875 -0.25 C 1.414062 -0.25 1.570312 -0.316406 1.6875 -0.453125 C 1.8125 -0.585938 1.875 -0.796875 1.875 -1.078125 C 1.875 -1.359375 1.8125 -1.566406 1.6875 -1.703125 C 1.570312 -1.835938 1.414062 -1.90625 1.21875 -1.90625 C 1.007812 -1.90625 0.847656 -1.835938 0.734375 -1.703125 C 0.617188 -1.566406 0.5625 -1.359375 0.5625 -1.078125 C 0.5625 -0.523438 0.78125 -0.25 1.21875 -0.25 Z M 1.21875 -0.25 "/></g></g></g><g fill="#d2d4b5" fill-opacity="1"><g transform="translate(57.221519, 53.379533)"><g><path d="M 0.890625 0.046875 C 0.671875 0.046875 0.503906 -0.0078125 0.390625 -0.125 C 0.273438 -0.238281 0.21875 -0.394531 0.21875 -0.59375 C 0.21875 -0.71875 0.242188 -0.820312 0.296875 -0.90625 C 0.347656 -1 0.425781 -1.070312 0.53125 -1.125 C 0.644531 -1.1875 0.789062 -1.234375 0.96875 -1.265625 C 1.125 -1.285156 1.238281 -1.3125 1.3125 -1.34375 C 1.394531 -1.375 1.453125 -1.410156 1.484375 -1.453125 C 1.515625 -1.492188 1.53125 -1.546875 1.53125 -1.609375 C 1.53125 -1.703125 1.492188 -1.773438 1.421875 -1.828125 C 1.359375 -1.878906 1.253906 -1.90625 1.109375 -1.90625 C 0.960938 -1.90625 0.835938 -1.878906 0.734375 -1.828125 C 0.640625 -1.773438 0.550781 -1.695312 0.46875 -1.59375 L 0.4375 -1.59375 L 0.28125 -1.8125 C 0.375 -1.925781 0.488281 -2.015625 0.625 -2.078125 C 0.769531 -2.148438 0.929688 -2.1875 1.109375 -2.1875 C 1.359375 -2.1875 1.539062 -2.128906 1.65625 -2.015625 C 1.78125 -1.910156 1.84375 -1.757812 1.84375 -1.5625 L 1.84375 -0.421875 C 1.84375 -0.304688 1.894531 -0.25 2 -0.25 C 2.03125 -0.25 2.0625 -0.253906 2.09375 -0.265625 L 2.125 -0.25 L 2.15625 -0.03125 C 2.132812 -0.0195312 2.101562 -0.0078125 2.0625 0 C 2.019531 0.0078125 1.984375 0.015625 1.953125 0.015625 C 1.828125 0.015625 1.734375 -0.0078125 1.671875 -0.0625 C 1.617188 -0.113281 1.582031 -0.191406 1.5625 -0.296875 L 1.515625 -0.296875 C 1.460938 -0.179688 1.382812 -0.09375 1.28125 -0.03125 C 1.175781 0.0195312 1.046875 0.046875 0.890625 0.046875 Z M 0.953125 -0.21875 C 1.078125 -0.21875 1.179688 -0.242188 1.265625 -0.296875 C 1.347656 -0.347656 1.410156 -0.421875 1.453125 -0.515625 C 1.503906 -0.617188 1.53125 -0.738281 1.53125 -0.875 L 1.53125 -1.140625 L 1.5 -1.15625 C 1.445312 -1.125 1.382812 -1.09375 1.3125 -1.0625 C 1.25 -1.039062 1.15625 -1.019531 1.03125 -1 C 0.90625 -0.988281 0.804688 -0.960938 0.734375 -0.921875 C 0.660156 -0.890625 0.609375 -0.847656 0.578125 -0.796875 C 0.546875 -0.742188 0.53125 -0.675781 0.53125 -0.59375 C 0.53125 -0.46875 0.566406 -0.375 0.640625 -0.3125 C 0.722656 -0.25 0.828125 -0.21875 0.953125 -0.21875 Z M 0.953125 -0.21875 "/></g></g></g><g fill="#d2d4b5" fill-opacity="1"><g transform="translate(59.438013, 53.379533)"><g><path d="M 0.984375 0.046875 C 0.847656 0.046875 0.722656 0.03125 0.609375 0 C 0.492188 -0.0390625 0.394531 -0.09375 0.3125 -0.15625 C 0.226562 -0.21875 0.171875 -0.289062 0.140625 -0.375 L 0.328125 -0.5625 L 0.375 -0.5625 C 0.445312 -0.457031 0.53125 -0.378906 0.625 -0.328125 C 0.726562 -0.273438 0.847656 -0.25 0.984375 -0.25 C 1.140625 -0.25 1.257812 -0.273438 1.34375 -0.328125 C 1.425781 -0.390625 1.46875 -0.476562 1.46875 -0.59375 C 1.46875 -0.675781 1.441406 -0.742188 1.390625 -0.796875 C 1.335938 -0.859375 1.253906 -0.898438 1.140625 -0.921875 L 0.78125 -1.015625 C 0.59375 -1.054688 0.453125 -1.128906 0.359375 -1.234375 C 0.273438 -1.335938 0.234375 -1.460938 0.234375 -1.609375 C 0.234375 -1.722656 0.257812 -1.820312 0.3125 -1.90625 C 0.375 -2 0.460938 -2.066406 0.578125 -2.109375 C 0.691406 -2.160156 0.820312 -2.1875 0.96875 -2.1875 C 1.164062 -2.1875 1.320312 -2.15625 1.4375 -2.09375 C 1.550781 -2.039062 1.640625 -1.96875 1.703125 -1.875 L 1.53125 -1.703125 L 1.484375 -1.703125 C 1.421875 -1.773438 1.347656 -1.828125 1.265625 -1.859375 C 1.179688 -1.898438 1.082031 -1.921875 0.96875 -1.921875 C 0.832031 -1.921875 0.722656 -1.894531 0.640625 -1.84375 C 0.566406 -1.789062 0.53125 -1.71875 0.53125 -1.625 C 0.53125 -1.539062 0.554688 -1.472656 0.609375 -1.421875 C 0.671875 -1.367188 0.765625 -1.320312 0.890625 -1.28125 L 1.25 -1.203125 C 1.4375 -1.160156 1.570312 -1.085938 1.65625 -0.984375 C 1.738281 -0.878906 1.78125 -0.75 1.78125 -0.59375 C 1.78125 -0.46875 1.75 -0.359375 1.6875 -0.265625 C 1.625 -0.171875 1.53125 -0.09375 1.40625 -0.03125 C 1.289062 0.0195312 1.148438 0.046875 0.984375 0.046875 Z M 0.984375 0.046875 "/></g></g></g></svg>